<svg width="29" height="32" viewBox="0 0 29 32" fill="none" xmlns="http://www.w3.org/2000/svg">
<path d="M27 7.59688C22.375 7.13281 17.7222 6.89375 13.0833 6.89375C10.3333 6.89375 7.58333 7.03438 4.83333 7.31563L2 7.59688M9.63889 6.17656L9.94444 4.33438C10.1667 2.99844 10.3333 2 12.6806 2H16.3194C18.6667 2 18.8472 3.05469 19.0556 4.34844L19.3611 6.17656M24.0139 12.0406L23.1111 26.2016C22.9583 28.4094 22.8333 30.125 18.9583 30.125H10.0417C6.16667 30.125 6.04167 28.4094 5.88889 26.2016L4.98611 12.0406M12.1806 22.3906H16.8056M11.0278 16.7656H17.9722" stroke="white" stroke-width="3" stroke-linecap="round" stroke-linejoin="round"/>
</svg>
