<svg width="27" height="28" viewBox="0 0 27 28" fill="none" xmlns="http://www.w3.org/2000/svg">
<path d="M19.3856 3.61438C21.9216 3.61438 23.9608 5.66667 23.9608 8.18954C23.9608 10.6601 22 12.6732 19.5556 12.7647C19.451 12.7516 19.3333 12.7516 19.2157 12.7647M21.9085 24.5294C22.8497 24.3333 23.7386 23.9542 24.4706 23.3922C26.5098 21.8627 26.5098 19.3399 24.4706 17.8105C23.7516 17.2614 22.8758 16.8954 21.9477 16.6863M9.9085 12.5948C9.77778 12.5817 9.62092 12.5817 9.47712 12.5948C6.36601 12.4902 3.89543 9.94118 3.89543 6.80392C3.89543 3.60131 6.48366 1 9.69935 1C12.902 1 15.5033 3.60131 15.5033 6.80392C15.4902 9.94118 13.0196 12.4902 9.9085 12.5948ZM3.37255 17.4183C0.20915 19.5359 0.20915 22.9869 3.37255 25.0915C6.96732 27.4967 12.8627 27.4967 16.4575 25.0915C19.6209 22.9739 19.6209 19.5229 16.4575 17.4183C12.8758 15.0261 6.98039 15.0261 3.37255 17.4183Z" stroke="white" stroke-width="2" stroke-linecap="round" stroke-linejoin="round"/>
</svg>
